HIERARCHY
ROOT Hips
{
	OFFSET 0.00000 0.00000 0.00000
	CHANNELS 6 Xposition Yposition Zposition Zrotation Yrotation Xrotation 
	JOINT LHipJoint
	{
		OFFSET 0 0 0
		CHANNELS 3 Zrotation Yrotation Xrotation
		JOINT LeftUpLeg
		{
			OFFSET 1.32989 -1.57253 0.78074
			CHANNELS 3 Zrotation Yrotation Xrotation
			JOINT LeftLeg
			{
				OFFSET 2.24323 -6.16323 0.00000
				CHANNELS 3 Zrotation Yrotation Xrotation
				JOINT LeftFoot
				{
					OFFSET 2.32677 -6.39275 0.00000
					CHANNELS 3 Zrotation Yrotation Xrotation
					JOINT LeftToeBase
					{
						OFFSET 0.18686 -0.51340 1.95973
						CHANNELS 3 Zrotation Yrotation Xrotation
						End Site
						{
							OFFSET 0.00000 -0.00000 1.02033
						}
					}
				}
			}
		}
	}
	JOINT RHipJoint
	{
		OFFSET 0 0 0
		CHANNELS 3 Zrotation Yrotation Xrotation
		JOINT RightUpLeg
		{
			OFFSET -1.27392 -1.57253 0.78074
			CHANNELS 3 Zrotation Yrotation Xrotation
			JOINT RightLeg
			{
				OFFSET -2.19978 -6.04385 0.00000
				CHANNELS 3 Zrotation Yrotation Xrotation
				JOINT RightFoot
				{
					OFFSET -2.29380 -6.30216 0.00000
					CHANNELS 3 Zrotation Yrotation Xrotation
					JOINT RightToeBase
					{
						OFFSET -0.24624 -0.67655 1.94854
						CHANNELS 3 Zrotation Yrotation Xrotation
						End Site
						{
							OFFSET -0.00000 -0.00000 1.03267
						}
					}
				}
			}
		}
	}
	JOINT LowerBack
	{
		OFFSET 0 0 0
		CHANNELS 3 Zrotation Yrotation Xrotation
		JOINT Spine
		{
			OFFSET -0.05982 2.08655 0.02100
			CHANNELS 3 Zrotation Yrotation Xrotation
			JOINT Spine1
			{
				OFFSET 0.04735 2.08455 -0.01795
				CHANNELS 3 Zrotation Yrotation Xrotation
				JOINT Neck
				{
					OFFSET 0 0 0
					CHANNELS 3 Zrotation Yrotation Xrotation
					JOINT Neck1
					{
						OFFSET -0.10038 1.43781 0.03084
						CHANNELS 3 Zrotation Yrotation Xrotation
						JOINT Head
						{
							OFFSET 0.07701 1.43632 -0.18495
							CHANNELS 3 Zrotation Yrotation Xrotation
							End Site
							{
								OFFSET 0.02744 1.45633 -0.07361
							}
						}
					}
				}
				JOINT LeftShoulder
				{
					OFFSET 0 0 0
					CHANNELS 3 Zrotation Yrotation Xrotation
					JOINT LeftArm
					{
						OFFSET 2.75061 0.74389 0.25227
						CHANNELS 3 Zrotation Yrotation Xrotation
						JOINT LeftForeArm
						{
							OFFSET 4.36901 -0.00000 0.00000
							CHANNELS 3 Zrotation Yrotation Xrotation
							JOINT LeftHand
							{
								OFFSET 3.21737 -0.00000 -0.00000
								CHANNELS 3 Zrotation Yrotation Xrotation
								JOINT LeftFingerBase
								{
									OFFSET 0 0 0
									CHANNELS 3 Zrotation Yrotation Xrotation
									JOINT LeftHandIndex1
									{
										OFFSET 0.56431 -0.00000 0.00000
										CHANNELS 3 Zrotation Yrotation Xrotation
										End Site
										{
											OFFSET 0.45496 -0.00000 0.00000
										}
									}
								}
								JOINT LThumb
								{
									OFFSET 0 0 0
									CHANNELS 3 Zrotation Yrotation Xrotation
									End Site
									{
										OFFSET 0.46191 -0.00000 0.46191
									}
								}
							}
						}
					}
				}
				JOINT RightShoulder
				{
					OFFSET 0 0 0
					CHANNELS 3 Zrotation Yrotation Xrotation
					JOINT RightArm
					{
						OFFSET -2.97379 0.79094 0.48377
						CHANNELS 3 Zrotation Yrotation Xrotation
						JOINT RightForeArm
						{
							OFFSET -4.34118 -0.00000 -0.00000
							CHANNELS 3 Zrotation Yrotation Xrotation
							JOINT RightHand
							{
								OFFSET -3.09531 -0.00000 0.00000
								CHANNELS 3 Zrotation Yrotation Xrotation
								JOINT RightFingerBase
								{
									OFFSET 0 0 0
									CHANNELS 3 Zrotation Yrotation Xrotation
									JOINT RightHandIndex1
									{
										OFFSET -0.59745 -0.00000 0.00000
										CHANNELS 3 Zrotation Yrotation Xrotation
										End Site
										{
											OFFSET -0.48168 -0.00000 0.00000
										}
									}
								}
								JOINT RThumb
								{
									OFFSET 0 0 0
									CHANNELS 3 Zrotation Yrotation Xrotation
									End Site
									{
										OFFSET -0.48903 -0.00000 0.48903
									}
								}
							}
						}
					}
				}
			}
		}
	}
}
MOTION
Frames: 8
Frame Time: .0083333
9.1437 15.4958 42.8655 0 0 0 0 0 0 -21 0 0 0 0 0 0 0 0 0 0 0 0 0 0 21 0 0 0 0 0 0 0 0 0 0 0 0 0 0 0 0 0 0 0 0 0 0 -16 0 0 21 0 0 11 0 0 0 -8 0 0 0 0 0 0 0 0 0 0 0 0 0 0 0 0 0 0 0 0 8 0 0 0 0 0 0 0 0 0 0 0 0 0 0 0 0 0
9.1437 15.4958 42.8655 166.0460 -40.7056 -150.4800 0.0000 0.0000 0.0000 -26.9008 -2.7937 -11.9761 1.9744 8.8125 25.2104 0.8235 18.4009 -31.9430 0.0102 -0.6519 -1.7915 0.0000 0.0000 0.0000 3.6045 7.5825 -46.2279 -5.4954 -13.9208 42.9213 -0.9448 -11.8880 -26.2046 -0.1790 -2.7252 7.5145 -0.8706 -0.1299 5.9032 8.1437 -0.4299 0.8298 9.1389 -0.3499 -2.3921 -5.4204 -3.8243 -3.0350 5.5176 -5.1144 3.6582 2.5820 -2.5172 2.0103 -0.0000 0.0000 0.0000 37.7202 -16.5837 -29.7491 78.9641 -59.5348 -50.4576 -0.0000 0.0000 -5.9175 36.3563 23.2210 16.1840 -7.1250 0.0000 -0.0000 8.2788 57.8338 2.6124 -0.0000 0.0000 0.0000 12.5536 -4.1952 -2.4966 -17.8524 27.9678 -4.4798 0.0000 0.0000 5.6428 -37.4806 28.5507 -20.1267 7.1250 -0.0000 -0.0000 -3.9314 4.3842 -4.2301
9.1480 15.5036 42.7422 165.2230 -40.2600 -148.9930 0.0000 0.0000 0.0000 -27.2660 -1.7944 -13.3739 1.9744 8.8126 25.2107 0.2344 19.1729 -28.8960 0.2073 -2.9312 -8.0872 0.0000 0.0000 0.0000 3.1235 7.4192 -47.2917 -5.5720 -14.0003 43.2387 -1.0081 -11.5384 -26.3752 -0.1563 -2.5472 7.0206 1.7567 1.3497 6.1499 5.3280 1.8845 0.2480 4.3799 0.8591 -3.3198 -0.4669 -7.2510 -1.1838 7.2214 -9.9610 2.4077 2.1735 -4.9088 1.3811 -0.0000 -0.0000 0.0000 43.7751 -21.5960 -33.1266 77.8745 -59.4371 -49.5189 -0.0000 0.0000 -5.2889 36.4439 22.9100 16.0381 -7.1250 0.0000 -0.0000 8.4108 57.4974 2.5862 -0.0000 -0.0000 0.0000 18.1570 -9.2730 -5.0770 -18.0608 28.2349 -4.5780 0.0000 0.0000 5.0436 -35.6519 26.0218 -17.4682 7.1250 -0.0000 -0.0000 -3.4270 0.9689 -3.4907
9.1673 15.5107 42.5725 164.6800 -39.9490 -148.6990 0.0000 0.0000 0.0000 -27.1540 0.4044 -14.0803 2.0443 8.9577 25.6631 -0.1927 19.1377 -25.4752 0.7409 -5.4985 -15.3361 0.0000 0.0000 0.0000 3.1448 7.7089 -46.6666 -5.5815 -14.0101 43.2781 -1.0844 -11.7080 -27.0959 -0.1458 -2.4605 6.7801 0.1424 0.4132 6.6670 7.3390 0.4142 0.9854 7.5957 0.0858 -2.7802 -4.7511 -7.7631 -1.1855 8.4619 -10.5553 2.0736 3.3198 -5.2183 1.6488 0.0000 0.0000 0.0000 40.3317 -18.6631 -31.0046 76.5568 -59.3060 -48.3850 -0.0000 0.0000 -5.4168 36.5695 22.4518 15.8181 -7.1250 0.0000 -0.0000 8.5958 56.9997 2.5402 0.0000 0.0000 0.0000 14.1468 -4.7239 -4.6127 -17.8732 27.9945 -4.4896 0.0000 0.0000 3.4233 -29.7280 24.0559 -13.1035 7.1250 -0.0000 -0.0000 -0.2457 -2.7743 -0.2335
9.1711 15.5307 42.4430 163.8690 -39.5736 -147.3270 0.0000 0.0000 0.0000 -27.4217 0.7182 -15.2357 2.1085 9.0885 26.0726 -0.3735 19.0706 -23.7200 1.0656 -6.5627 -18.4261 0.0000 0.0000 0.0000 2.8768 7.3104 -47.4448 -5.5809 -14.0095 43.2755 -1.0917 -11.6254 -27.0779 -0.0904 -1.9388 5.3366 0.2095 -0.0297 6.7799 7.8778 -0.2214 1.1467 8.2044 -0.2605 -2.5899 -6.6653 -8.7233 -0.7672 9.9295 -11.8469 1.5445 4.1455 -5.8733 1.7466 0.0000 0.0000 0.0000 39.6063 -17.4599 -30.1697 74.9746 -59.1295 -47.0257 -0.0000 0.0000 -5.5344 37.1385 22.2984 16.0326 -7.1250 0.0000 -0.0000 9.2766 56.9617 2.7351 0.0000 0.0000 0.0000 12.3233 -2.2953 -4.7336 -17.6665 27.7281 -4.3930 0.0000 0.0000 2.1379 -25.5971 23.2404 -10.7044 7.1250 -0.0000 -0.0000 2.1748 -4.5331 1.9976
9.1787 15.5738 42.2757 162.9010 -39.0587 -146.1790 0.0000 0.0000 0.0000 -27.7030 1.0814 -15.9144 2.1551 9.1819 26.3661 -0.4884 18.7883 -22.0782 1.2841 -7.1807 -20.2518 0.0000 0.0000 0.0000 2.4678 7.2058 -47.6073 -5.6026 -14.0319 43.3653 -1.1577 -11.5807 -27.5214 -0.0496 -1.4367 3.9514 0.2684 -0.0208 6.9373 8.1345 -0.3454 2.2685 8.4458 -0.3959 -1.4881 -6.3917 -10.1883 -3.5605 10.9135 -13.6804 1.2737 3.7528 -6.6688 2.1586 0.0000 0.0000 0.0000 39.9871 -16.2399 -31.3938 73.1383 -58.8980 -45.4514 -0.0000 0.0000 -5.3515 37.6265 22.4610 16.4099 -7.1250 0.0000 -0.0000 9.8478 57.2718 2.9797 0.0000 0.0000 0.0000 10.9894 -0.3997 -6.9821 -17.3368 27.2996 -4.2407 0.0000 0.0000 0.7262 -22.1206 23.2543 -9.1172 7.1250 -0.0000 -0.0000 4.3320 -5.1553 3.9367
9.1848 15.5828 42.1257 162.1530 -38.4266 -144.6810 0.0000 0.0000 0.0000 -27.7756 -0.2385 -16.0123 2.1773 9.2260 26.5050 0.0398 16.5896 -23.8926 0.2943 -3.4887 -9.6423 0.0000 0.0000 0.0000 2.0457 7.1044 -48.6809 -5.6792 -14.1101 43.6804 -1.1957 -11.3584 -27.6071 -0.0305 -1.1272 3.0990 0.6544 -0.0671 6.8016 8.2278 -0.4166 2.3742 8.3227 -0.4454 -1.2927 -6.4025 -11.1716 -3.2900 11.4585 -14.9779 0.6666 3.8593 -7.3174 2.0907 -0.0000 0.0000 0.0000 40.2799 -15.8407 -31.1085 71.5257 -58.6703 -44.0722 -0.0000 0.0000 -5.5146 37.5365 22.6687 16.4951 -7.1250 0.0000 -0.0000 9.7304 57.4910 2.9953 -0.0000 0.0000 0.0000 10.4086 0.7604 -7.9558 -17.2804 27.2260 -4.2148 0.0000 -0.0000 -0.5456 -19.8214 23.0546 -8.0344 7.1250 -0.0000 -0.0000 5.7444 -5.7410 5.1676
9.1938 15.5408 41.9820 161.4530 -37.6952 -142.8840 0.0000 0.0000 0.0000 -28.3663 0.4195 -17.7250 2.1755 9.2225 26.4938 -0.5385 18.0288 -20.1339 0.9633 -6.2494 -17.5097 0.0000 0.0000 0.0000 1.5868 6.8857 -50.5541 -5.8404 -14.2719 44.3379 -1.1710 -11.0504 -27.1700 -0.0117 -0.6994 1.9219 1.1870 -0.0888 6.5571 8.2504 -0.4204 2.2484 8.0322 -0.4457 -1.2893 -6.1335 -11.9600 -3.0305 11.7009 -16.0157 0.1788 3.8521 -7.8400 1.9948 0.0000 -0.0000 0.0000 40.7370 -15.8840 -30.8557 69.4457 -58.3419 -42.2985 -0.0000 0.0000 -5.5596 36.0319 22.6728 15.6628 -7.1250 0.0000 -0.0000 7.9454 57.1231 2.3700 0.0000 -0.0000 0.0000 10.1671 2.0930 -9.3432 -17.1594 27.0675 -4.1596 0.0000 -0.0000 -1.2940 -19.2648 22.3969 -7.5854 7.1250 -0.0000 -0.0000 6.0390 -6.5056 5.3465
